<svg width="60" height="84" viewBox="0 0 60 84" fill="none" xmlns="http://www.w3.org/2000/svg">
<path d="M58.5714 0.270508H12.0286C8.8384 0.270508 5.77888 1.53897 3.52309 3.79685C1.26729 6.05472 0 9.11706 0 12.3102C0 12.539 0 12.782 0 12.9965C0 13.211 0 13.0966 0 13.1395V70.7784C0.00378095 74.0727 1.31293 77.231 3.64024 79.5605C5.96755 81.89 9.12297 83.2003 12.4143 83.2041H58.5714C58.9503 83.2041 59.3137 83.0535 59.5816 82.7853C59.8495 82.5171 60 82.1534 60 81.7742V1.7004C60 1.32117 59.8495 0.957469 59.5816 0.689313C59.3137 0.421156 58.9503 0.270508 58.5714 0.270508ZM24.1143 17.901C23.7354 17.901 23.372 18.0517 23.1041 18.3199C22.8362 18.588 22.6857 18.9517 22.6857 19.3309V22.5768L17.2571 26.9522V9.92226H30.9571V26.9522L25.5429 22.5768V19.3309C25.5429 18.9517 25.3923 18.588 25.1244 18.3199C24.8565 18.0517 24.4932 17.901 24.1143 17.901ZM57.1429 9.92226V13.6114H33.8143V9.92226H57.1429ZM33.8143 16.4712H57.1429V21.4758H33.8143V16.4712ZM5.52857 5.81848C7.25493 4.09747 9.59203 3.13091 12.0286 3.13029H57.1429V7.06248H11.1571C10.7783 7.06248 10.4149 7.21313 10.147 7.48129C9.87908 7.74944 9.72857 8.11314 9.72857 8.49237C9.72857 8.8716 9.87908 9.2353 10.147 9.50346C10.4149 9.77161 10.7783 9.92226 11.1571 9.92226H14.4V13.6114H11.1571C10.7783 13.6114 10.4149 13.762 10.147 14.0302C9.87908 14.2983 9.72857 14.662 9.72857 15.0413C9.72857 15.4205 9.87908 15.7842 10.147 16.0524C10.4149 16.3205 10.7783 16.4712 11.1571 16.4712H14.4V21.4758H12.0286C11.7286 21.4758 11.4429 21.4758 11.1429 21.4758C8.98377 21.2629 6.96897 20.2944 5.45328 18.7407C3.93759 17.187 3.01824 15.1478 2.85714 12.9822C2.85714 12.7677 2.85714 12.5247 2.85714 12.3102C2.85619 9.87808 3.81655 7.54436 5.52857 5.81848ZM57.1429 80.3443H12.4143C9.88074 80.3405 7.45203 79.3315 5.66054 77.5383C3.86905 75.7452 2.86092 73.3143 2.85714 70.7784V20.0602L2.97143 20.1889C3.14286 20.3891 3.34286 20.5892 3.52857 20.7751L3.8 21.0468C4.09144 21.3241 4.39658 21.5866 4.71429 21.8332L5.68571 22.5053L6.02857 22.7055L6.74286 23.0915L7.17143 23.2774L7.87143 23.5634L8.32857 23.7207C8.56738 23.8053 8.81059 23.8769 9.05714 23.9352L9.51429 24.0496L10.3429 24.1926H10.7571C11.1759 24.2143 11.5955 24.2143 12.0143 24.1926H14.3857V29.7977C14.3848 30.0683 14.4606 30.3336 14.6043 30.5628C14.748 30.792 14.9538 30.9756 15.1976 31.0924C15.4415 31.2092 15.7134 31.2544 15.9819 31.2226C16.2504 31.1909 16.5043 31.0835 16.7143 30.913L24.1 24.9504L31.4286 31.056C31.554 31.1414 31.6881 31.2133 31.8286 31.2705H31.9571H32.2571H32.4C32.7789 31.2705 33.1422 31.1199 33.4102 30.8517C33.6781 30.5836 33.8286 30.2199 33.8286 29.8406V24.3355H57.1429V80.3443Z" fill="#2B59C3"/>
<path d="M42.9895 53.6782L35.2426 49.9659L39.2845 37.479C39.4529 36.804 39.2845 35.9603 38.6109 35.6228C38.1056 35.1166 37.2636 35.1166 36.5899 35.6228L16.7175 49.4596C16.2122 49.7971 15.8754 50.3033 16.0438 50.9783C16.0438 51.6533 16.3806 52.1595 17.0543 52.3282L24.6328 56.0406L19.412 67.8525C19.0752 68.5274 19.2436 69.3711 19.9173 69.8774C20.2541 70.2148 20.5909 70.2148 21.0961 70.2148C21.433 70.2148 21.7698 70.2148 21.9382 69.8774L43.1579 56.7155C43.6632 56.378 44 55.8718 44 55.1968C44 54.5219 43.4948 54.0157 42.9895 53.6782ZM24.6328 64.3089L28.3378 56.0406C28.6746 55.1968 28.3378 54.1844 27.4957 53.8469L21.0961 50.8096L34.569 41.5288L31.706 50.6408C31.3692 51.4845 31.8744 52.3282 32.5481 52.6657L38.7793 55.7031L24.6328 64.3089Z" fill="#2B59C3"/>
</svg>
